<?xml version="1.0" standalone="no"?>
<!DOCTYPE svg PUBLIC "-//W3C//DTD SVG 1.1//EN" "http://www.w3.org/Graphics/SVG/1.1/DTD/svg11.dtd" >
<!--
2013-9-30: Created.
-->
<svg>
<metadata>
Created by iconfont
</metadata>
<defs>

<font id="iconfont" horiz-adv-x="1024" >
  <font-face
    font-family="iconfont"
    font-weight="500"
    font-stretch="normal"
    units-per-em="1024"
    ascent="896"
    descent="-128"
  />
    <missing-glyph />
    
    <glyph glyph-name="x" unicode="x" horiz-adv-x="1001"
d="M281 543q-27 -1 -53 -1h-83q-18 0 -36.5 -6t-32.5 -18.5t-23 -32t-9 -45.5v-76h912v41q0 16 -0.5 30t-0.5 18q0 13 -5 29t-17 29.5t-31.5 22.5t-49.5 9h-133v-97h-438v97zM955 310v-52q0 -23 0.5 -52t0.5 -58t-10.5 -47.5t-26 -30t-33 -16t-31.5 -4.5q-14 -1 -29.5 -0.5
t-29.5 0.5h-32l-45 128h-439l-44 -128h-29h-34q-20 0 -45 1q-25 0 -41 9.5t-25.5 23t-13.5 29.5t-4 30v167h911zM163 247q-12 0 -21 -8.5t-9 -21.5t9 -21.5t21 -8.5q13 0 22 8.5t9 21.5t-9 21.5t-22 8.5zM316 123q-8 -26 -14 -48q-5 -19 -10.5 -37t-7.5 -25t-3 -15t1 -14.5
t9.5 -10.5t21.5 -4h37h67h81h80h64h36q23 0 34 12t2 38q-5 13 -9.5 30.5t-9.5 34.5q-5 19 -11 39h-368zM336 498v228q0 11 2.5 23t10 21.5t20.5 15.5t34 6h188q31 0 51.5 -14.5t20.5 -52.5v-227h-327z" />
    

    
    <glyph glyph-name="timing" unicode="&#58951;" d="M511.006328-57.834964000000014c-245.64473 0-445.491515 199.024869-445.491515 443.660542 0 244.633626 199.846785 443.658496 445.491515 443.658496 245.649847 0 445.501749-199.024869 445.501749-443.658496C956.507054 141.18990499999995 756.656175-57.834964000000014 511.006328-57.834964000000014zM511.006328 772.562667c-214.105109 0-388.292438-173.49031-388.292438-386.737088 0-213.250872 174.187329-386.743228 388.292438-386.743228 214.110226 0 388.301648 173.493379 388.301648 386.743228C899.307976 599.07338 725.116554 772.562667 511.006328 772.562667zM649.290475 219.653955c-7.637255 0-14.820142 2.964518-20.222403 8.346085L490.797229 365.679749c-2.628984 2.629897-4.709453 5.758144-6.173865 9.286504-1.470553 3.521197-2.213504 7.170307-2.213504 10.859325L482.409859 653.2124180000001c0 15.692401 12.830752 28.459169 28.602609 28.459169 15.768787 0 28.597492-12.766768 28.597492-28.459169l0-255.613702 129.916221-129.376603c5.397143-5.372358 8.368949-12.512988 8.369973-20.103874 0.001023-7.596002-2.971806-14.740726-8.369973-20.116153C664.116758 222.61949600000003 656.9308 219.653955 649.290475 219.653955z"  horiz-adv-x="1024" />

    
    <glyph glyph-name="heart" unicode="&#58913;" d="M705.403848 831.53171c-76.854389 0-148.311861-38.554084-195.34506-102.123912-47.007617 63.587224-118.448716 102.123912-195.344037 102.123912-138.54031 0-251.251348-123.228579-251.251348-274.711665 0-90.369194 40.368406-153.767106 72.820516-204.702172 94.311992-147.95268 331.443761-332.071048 341.487511-339.834872 9.676383-7.479345 20.989033-11.222599 32.275077-11.222599 11.31265 0 22.607904 3.744277 32.270984 11.222599 10.057053 7.763824 247.205195 191.882192 341.488535 339.834872 32.466436 50.939159 72.849168 114.332978 72.849168 204.702172C956.655196 708.30313 843.939041 831.53171 705.403848 831.53171L705.403848 831.53171zM837.929164 387.082198c-89.77056-140.875494-327.883679-324.878229-327.883679-324.878229s-238.086513 184.002734-327.887772 324.878229c-33.120328 52.005444-62.774719 101.438297-62.774719 169.736822 0 117.939109 87.443561 213.58447 195.331757 213.58447 79.730902 0 148.175761-52.308343 178.538279-127.194914l0 0.37146 0.080841 0c2.26253-7.806803 8.857738-13.501502 16.711614-13.501502 7.880481 0 14.474666 5.694699 16.720823 13.501502l0.230244 0c30.435173 74.66349 98.785887 126.823454 178.406273 126.823454 107.86159 0 195.331757-95.64536 195.331757-213.58447C900.734582 488.520495 871.075075 439.088666 837.929164 387.082198L837.929164 387.082198zM837.929164 387.082198"  horiz-adv-x="1024" />

    
    <glyph glyph-name="search" unicode="&#58900;" d="M962.169281-58.493837 746.481917 157.19148c49.937342 61.257156 79.94068 139.357931 79.94068 224.524636 0 196.394972-159.186536 355.598904-355.598904 355.598904-196.377576 0-355.598904-159.203932-355.598904-355.598904 0-196.36018 159.221328-355.6163 355.598904-355.6163 85.600587 0 164.116825 30.281677 225.479381 80.704067l215.547171-215.581963L962.169281-58.493837zM470.824717 97.25439c-157.136853 0-284.479123 127.341247-284.479123 284.461727s127.34227 284.496519 284.479123 284.496519c157.102061 0 284.479123-127.377062 284.479123-284.496519S627.926778 97.25439 470.824717 97.25439z"  horiz-adv-x="1024" />

    
    <glyph glyph-name="share" unicode="&#58895;" d="M513.502213 404.554128M262.515902 410.309202c-1.084705 1.176802-2.026146 2.5071-2.814092 3.970428-0.777713 1.453095-1.37123 2.957355-1.780553 4.482081C259.589246 416.019251 261.113973 413.194926 262.515902 410.309202zM761.674433 121.64475700000003c-0.13303-0.450255-0.296759-0.890276-0.470721-1.340531-0.184195-0.460488-0.378623-0.910743-0.593518-1.340531C760.947885 119.86420399999997 761.306043 120.75447999999994 761.674433 121.64475700000003zM865.059058 231.77297c-57.008388 0-106.833167-31.395034-133.080971-77.812203l-422.420799 168.057577c3.366677 12.576433 5.157463 25.787316 5.157463 39.407522 0 19.002796-3.489474 37.207413-9.854439 54.010101l359.917256 194.581674c27.895327-37.19718 72.337515-61.306274 122.295324-61.306274 84.238566 0 152.779615 68.530816 152.779615 152.779615 0 84.238566-68.541049 152.769382-152.779615 152.769382-84.238566 0-152.779615-68.530816-152.779615-152.769382 0-19.657712 3.735068-38.455847 10.519588-55.729256l-359.477234-194.356546c-27.813462 38.046524-72.767304 62.800301-123.390261 62.800301-84.238566 0-152.779615-68.541049-152.779615-152.779615s68.541049-152.779615 152.779615-152.779615c56.107879 0 105.236809 30.402427 131.812071 75.601862l423.055249-168.30317c-2.957355-11.839653-4.523013-24.211425-4.523013-36.951587 0-84.238566 68.530816-152.779615 152.769382-152.779615s152.779615 68.541049 152.779615 152.779615S949.297624 231.77297 865.059058 231.77297zM787.072893 813.328116c61.674665 0 111.847367-50.172703 111.847367-111.837134 0-61.674665-50.172703-111.847367-111.847367-111.847367-61.664432 0-111.847367 50.172703-111.847367 111.847367C675.225525 763.155413 725.408461 813.328116 787.072893 813.328116zM161.945369 249.57849799999997c-61.674665 0-111.847367 50.172703-111.847367 111.847367s50.172703 111.847367 111.847367 111.847367c40.727587 0 76.440973-21.88852 95.975888-54.511521 1.667989-2.742461 3.192715-5.566786 4.594645-8.452509 7.214309-14.776542 11.266601-31.364335 11.266601-48.883337C273.782503 299.75120100000004 223.609801 249.57849799999997 161.945369 249.57849799999997zM865.059058-32.85401300000001c-61.664432 0-111.837134 50.172703-111.837134 111.847367 0 14.07046 2.609431 27.53717 7.367805 39.939641 0.010233 0.010233 0.010233 0.020466 0.020466 0.030699 0.337691 0.900509 0.695848 1.790786 1.064238 2.681062 0.010233 0.020466 0.010233 0.040932 0.020466 0.061398 16.812921 40.543392 56.81396 69.134567 103.364159 69.134567 61.674665 0 111.847367-50.172703 111.847367-111.847367C976.906425 17.318689999999947 926.733723-32.85401300000001 865.059058-32.85401300000001z"  horiz-adv-x="1024" />

    
    <glyph glyph-name="play" unicode="&#59569;" d="M512 709.6c-108.8 0-212.48-42.24-289.28-120.32C144.64 512.48 102.4 408.8 102.4 300s42.24-212.48 120.32-289.28c76.8-76.8 180.48-120.32 289.28-120.32 108.8 0 212.48 42.24 289.28 120.32 76.8 76.8 120.32 180.48 120.32 289.28s-42.24 212.48-120.32 289.28C724.48 667.36 620.8 709.6 512 709.6zM765.44 46.56C697.6-21.28 608-58.4 512-58.4c-96 0-185.6 37.12-253.44 104.96C190.72 114.4 153.6 204 153.6 300s37.12 185.6 104.96 253.44C326.4 621.28 416 658.4 512 658.4c96 0 185.6-37.12 253.44-104.96C833.28 485.6 870.4 396 870.4 300S833.28 114.4 765.44 46.56zM642.56 320.48l-179.2 140.8c-7.68 6.4-17.92 7.68-26.88 2.56-8.96-3.84-14.08-12.8-14.08-23.04l0-281.6c0-10.24 5.12-19.2 14.08-23.04 3.84-1.28 7.68-2.56 11.52-2.56 5.12 0 11.52 1.28 15.36 5.12l179.2 140.8c6.4 5.12 10.24 12.8 10.24 20.48S648.96 315.36 642.56 320.48zM473.6 211.68 473.6 388.32l112.64-88.32L473.6 211.68z"  horiz-adv-x="1024" />

    
    <glyph glyph-name="delete" unicode="&#58989;" d="M232.547357-103.19301099999996c-36.488029 0-66.174142 28.913517-66.174142 64.452941L166.373215 703.829236l-77.56354 0c-17.176195 0-31.148417 13.973246-31.148417 31.148417 0 17.172101 13.973246 31.142278 31.148417 31.142278l197.980074 0L286.789749 814.023964c0 32.057113 29.064966 57.169047 66.168002 57.169047L676.931377 871.193011c37.104059 0 66.168002-25.111934 66.168002-57.169047l0-47.904033 192.097086 0c17.172101 0 31.142278-13.970176 31.142278-31.142278 0-17.176195-13.970176-31.148417-31.142278-31.148417l-71.718415 0 0-742.568283c0-35.539424-29.684066-64.452941-66.174142-64.452941L232.547357-103.19198800000004zM228.669026 0.988770000000045c-0.064468-1.700735-0.455371-19.996426 11.401678-32.423457 7.011694-7.349385 16.746406-11.076266 28.933983-11.076266 37.886889 0 486.938208 1.485841 491.469408 1.500167 14.346753 0.323365 41.339524 8.816806 41.339524 38.658462 0 16.71366-0.134053 167.103856-0.274246 326.323137-0.141216 159.327752-0.287549 324.08005-0.287549 342.390068 0 27.650757-22.469758 37.503149-43.497677 37.503149-0.904603 0-1.51961-0.023536-1.77339-0.036839L267.184225 703.827189c-0.884137 0.149403-3.022847 0.451278-5.900384 0.451278-9.806343 0-32.613792-3.695159-32.613792-37.917588L228.67005 0.988770000000045zM349.042581 766.119931l331.730287 0L680.772868 808.902316 349.042581 808.902316 349.042581 766.119931zM679.838589 35.431209999999965c-17.175171 0-31.147394 13.972223-31.147394 31.147394L648.691195 597.785038c0 17.175171 13.972223 31.148417 31.147394 31.148417 17.172101 0 31.142278-13.973246 31.142278-31.148417l0-531.206434C710.980867 49.40445599999998 697.010691 35.431209999999965 679.838589 35.431209999999965zM514.910283 35.431209999999965c-17.175171 0-31.148417 13.972223-31.148417 31.147394L483.761865 597.785038c0 17.175171 13.973246 31.148417 31.148417 31.148417 17.172101 0 31.142278-13.973246 31.142278-31.148417l0-531.206434C546.05256 49.40445599999998 532.082384 35.431209999999965 514.910283 35.431209999999965zM350.012675 35.431209999999965c-17.172101 0-31.142278 13.972223-31.142278 31.147394L318.870398 597.785038c0 17.175171 13.970176 31.148417 31.142278 31.148417 17.176195 0 31.148417-13.973246 31.148417-31.148417l0-531.206434C381.162116 49.40445599999998 367.18887 35.431209999999965 350.012675 35.431209999999965z"  horiz-adv-x="1024" />

    
    <glyph glyph-name="music" unicode="&#58921;" d="M995.226242 875.006271C983.741438 884.638688 969.416305 889.825374 954.597202 889.825374c-3.581283 0-7.286059-0.370478-10.990835-0.98794L406.166908 793.995176c-30.255668-5.310178-52.237337-31.490593-52.237337-62.240232l0-63.228172 0-31.614086 0-447.907381c-32.108056 23.216594-73.725036 36.924264-119.91124 36.924264-26.92137 0-53.719247-4.445731-79.899662-13.090207-60.017366-20.005789-108.17945-60.140859-132.013507-110.15533-18.400386-38.65316-20.870236-80.76411-6.792089-118.429329 24.081042-64.463097 92.372407-106.080077 174.124457-106.080077 26.92137 0 53.719247 4.445731 79.899662 13.090207 60.017366 20.005789 108.055958 60.017366 132.013507 110.031838 10.249879 21.611192 15.066088 44.086831 15.313073 66.56247l0.617463 0L417.281235 573.684515c3.581283 0 7.286059 0.370478 10.990835 0.864448L954.597202 667.538833l0-383.691269c-32.108056 23.216594-73.725036 37.047757-120.034732 37.047757-26.92137 0-53.719247-4.445731-79.899662-13.090207-60.017366-20.005789-108.17945-60.140859-132.013507-110.15533-18.400386-38.65316-20.870236-80.76411-6.792089-118.429329 24.081042-64.463097 92.372407-106.080077 174.124457-106.080077 26.92137 0 53.719247 4.445731 79.899662 13.090207 59.893874 20.005789 108.055958 60.017366 132.013507 110.031838 10.249879 21.611192 15.066088 44.086831 15.313073 66.56247l0.617463 0L1017.825374 731.754945l0 31.614086L1017.825374 826.597202C1017.825374 845.244573 1009.551375 863.027496 995.226242 875.006271L995.226242 875.006271zM249.207911-48.7178c-75.700917-25.315967-153.995176-0.617463-174.74192 54.954173-20.746744 55.695128 23.710564 121.146165 99.411481 146.462132 75.700917 25.315967 154.118669 0.617463 174.74192-54.954173C369.489629 42.172697 325.03232-23.525326 249.207911-48.7178L249.207911-48.7178zM848.76411 46.124457c-75.824409-25.315967-154.118669-0.617463-174.865412 54.954173-20.746744 55.695128 23.834057 121.146165 99.411481 146.462132 75.824409 25.315967 154.118669 0.617463 174.865412-54.954173C969.045827 137.014954 924.588519 71.316932 848.76411 46.124457L848.76411 46.124457zM953.362277 731.754945l-537.43946-94.842258 0 31.614086L415.922817 731.754945 953.362277 826.597202l0-63.228172L953.362277 731.754945 953.362277 731.754945zM953.362277 731.754945"  horiz-adv-x="1025" />

    
    <glyph glyph-name="night" unicode="&#58955;" d="M425.886737 295.87901c-116.749004 116.749004-162.574702 277.559527-137.490398 428.903443-27.338648-16.698311-53.154617-36.870746-76.807317-60.523445-160.901597-160.901597-160.901597-421.775092 0-582.676689 80.45131-80.45131 185.894827-120.676453 291.338345-120.676453s210.888058 40.225143 291.338345 120.676453c23.653723 23.653723 43.825135 49.468668 60.523445 76.807317-26.76048-4.435009-53.841256-6.655584-80.898495-6.655584C647.929856 151.73405200000002 521.991562 199.774185 425.886737 295.87901zM634.896005 47.972849999999994c-42.002626-17.032932-86.402859-25.668613-131.968637-25.668613-45.565778 0-89.966011 8.635681-131.968637 25.668613-43.453674 17.621333-82.4662 43.535539-115.954919 77.024258-33.488719 33.488719-59.402925 72.501244-77.024258 115.954919-17.032932 42.002626-25.668613 86.402859-25.668613 131.968637s8.636704 89.966011 25.668613 131.968637c11.626805 28.67304 26.866904 55.414077 45.509497 79.908958 3.832282-35.856649 11.154038-71.309092 21.833261-105.665575 13.035898-41.935088 31.088042-82.263585 53.656037-119.862925 23.222911-38.692231 51.314713-74.626651 83.492576-106.804515 52.825113-52.825113 114.445542-93.735871 183.149297-121.595382 48.000224-19.464307 97.958032-31.984459 149.143808-37.417191C690.280406 74.82338200000004 663.552671 59.59351600000002 634.896005 47.972849999999994zM923.710876 634.718205l-152.450111 22.152533c-3.563152 0.517793-6.642281 2.755764-8.235568 5.983271l-68.177775 138.143267c-2.00568 4.064572-5.907547 6.096858-9.80839 6.096858s-7.80271-2.032286-9.80839-6.096858l-68.177775-138.143267c-1.593288-3.228531-4.673439-5.465478-8.235568-5.983271l-152.450111-22.152533c-8.971325-1.303692-12.55392-12.328793-6.062066-18.656919l110.313431-107.529015c2.577708-2.51324 3.75451-6.133697 3.145643-9.6815l-26.041096-151.83408c-1.212618-7.070023 4.40431-12.811794 10.778484-12.811794 1.681292 0 3.416819 0.400113 5.091972 1.280156l136.355551 71.686692c1.593288 0.838088 3.342118 1.25662 5.089925 1.25662 1.74883 0 3.496637-0.418532 5.089925-1.25662l136.355551-71.686692c1.675152-0.881067 3.409656-1.280156 5.091972-1.280156 6.373151 0 11.991102 5.741771 10.778484 12.811794L816.312844 498.849748c-0.608867 3.547803 0.567935 7.169283 3.145643 9.6815l110.313431 107.529015C936.264796 622.389412 932.682201 633.4145129999999 923.710876 634.718205zM776.6014 552.497599c-17.051351-16.620539-24.828478-40.555671-20.803815-64.027246l8.757454-51.061956-45.855374 24.107047c-10.340509 5.435803-21.980617 8.31027-33.662681 8.31027-11.68104 0-23.320125-2.87242-33.660634-8.309246l-45.856397-24.108071 8.758478 51.064003c4.024663 23.469528-3.752464 47.403636-20.803815 64.025199l-37.098943 36.162618 51.268664 7.449669c23.566742 3.423983 43.927465 18.216897 54.465472 39.571251l22.928199 46.458101 22.927175-46.456055c10.539031-21.355377 30.899754-36.148291 54.465472-39.572274l51.268664-7.449669L776.6014 552.497599z"  horiz-adv-x="1024" />

    
    <glyph glyph-name="member" unicode="&#58884;" d="M886.639-5.592999999999961c-10.545 91.274-54.187 175.479-122.885 237.104-37.857 33.96-82.014 59.752-129.74 76.063 23.159 12.223 44.527 27.939 63.238 46.651 49.483 49.482 76.735 115.272 76.735 185.252 0 69.977-27.251 135.768-76.734 185.252C647.771 774.213 581.98 801.4639999999999 512 801.4639999999999c-69.978 0-135.768-27.251-185.252-76.734-49.483-49.482-76.735-115.273-76.735-185.253 0-69.98 27.252-135.77 76.735-185.253 18.712-18.712 40.08-34.428 63.235-46.65-47.725-16.311-91.881-42.104-129.738-76.064-68.699-61.627-112.339-145.832-122.884-237.104-1.584-13.716 8.25-26.119 21.966-27.704 13.708-1.577 26.119 8.25 27.704 21.966 9.142 79.132 47 152.156 106.602 205.623 44.605 40.013 99.278 66.973 158.109 77.965 16.716 3.123 33.885 4.927 51.257 5.409 2.987-0.1 5.986-0.167 8.96-0.167 3.206 0 6.408 0.062 9.605 0.177 0.428-0.011 0.855-0.017 1.283-0.03 16.3-0.496 32.925-2.31 49.411-5.39 58.83-10.992 113.504-37.952 158.108-77.963 59.601-53.465 97.459-126.49 106.602-205.624 1.473-12.741 12.28-22.134 24.804-22.133 0.958 0 1.926 0.055 2.9 0.167C878.389-31.71199999999999 888.223-19.30899999999997 886.639-5.592999999999961zM300.013 539.477c0 56.624 22.05 109.858 62.09 149.897 40.04 40.039 93.273 62.09 149.897 62.09s109.858-22.05 149.897-62.09c40.039-40.04 62.09-93.273 62.09-149.897s-22.05-109.858-62.09-149.897c-26.141-26.141-57.909-44.609-92.571-54.284-15.719-4.38-31.93-6.907-48.223-7.597-6.024 0.133-12.038 0.132-18.034-0.012-0.213 0.009-0.426 0.012-0.639 0.021-16.135 0.712-32.196 3.246-47.755 7.588-34.661 9.674-66.43 28.142-92.571 54.284C322.064 429.619 300.013 482.854 300.013 539.477z"  horiz-adv-x="1024" />

    
    <glyph glyph-name="download" unicode="&#58890;" d="M768.222569 694.989917l-58.383712 0 0-40.932248 58.383712 0c48.495504 0 87.949075-39.45357 87.949075-87.949075l0-402.76104c0-48.495504-39.454594-87.949075-87.949075-87.949075L256.458953 75.39847999999995c-48.495504 0-87.949075 39.454594-87.949075 87.949075L168.509878 566.108594c0 48.495504 39.45357 87.949075 87.949075 87.949075l62.476937 0 0 40.932248-62.476937 0c-71.065546 0-128.881322-57.815777-128.881322-128.881322l0-402.76104c0-71.065546 57.815777-128.881322 128.881322-128.881322l511.763616 0c71.065546 0 128.881322 57.815777 128.881322 128.881322L897.103892 566.108594C897.103892 637.1741400000001 839.288115 694.989917 768.222569 694.989917zM309.87963 449.813938l189.011818-189.012841c3.838422-3.837398 9.04398-5.993504 14.47262-5.993504s10.634198 2.156106 14.47262 5.994528l190.662411 190.663434c7.992021 7.993045 7.992021 20.951171 0 28.943193-7.993045 7.993045-20.952194 7.993045-28.944216 0L532.806885 323.659727 532.806885 746.421286c0 11.30344-9.162684 20.466124-20.466124 20.466124s-20.466124-9.162684-20.466124-20.466124l0-420.714947L338.822822 478.758154c-7.993045 7.993045-20.951171 7.993045-28.943193 0S301.887608 457.806983 309.87963 449.813938z"  horiz-adv-x="1024" />

    
    <glyph glyph-name="list" unicode="&#59000;" d="M928 704.0029999999999L96 704.0029999999999c-8.837 0-16-7.163-16-16l0-32.004c0-8.835 7.163-15.998 16-15.998l832 0c8.837 0 16 7.163 16 15.998l0 32.004C944 696.8389999999999 936.837 704.0029999999999 928 704.0029999999999zM928 416.003L96 416.003c-8.837 0-16-7.163-16-16l0-32.004c0-8.835 7.163-15.998 16-15.998l832 0c8.837 0 16 7.163 16 15.998l0 32.004C944 408.839 936.837 416.003 928 416.003zM928 127.00300000000004L96 127.00300000000004c-8.837 0-16-7.163-16-16l0-32.004c0-8.835 7.163-15.998 16-15.998l832 0c8.837 0 16 7.163 16 15.998l0 32.004C944 119.83900000000006 936.837 127.00300000000004 928 127.00300000000004z"  horiz-adv-x="1024" />

    
    <glyph glyph-name="cart" unicode="&#59020;" d="M726.046492-35.600566999999955c-48.511877 0-87.977727 39.466873-87.977727 87.982844 0 48.510854 39.46585 87.977727 87.977727 87.977727 48.510854 0 87.98182-39.467897 87.98182-87.977727C814.028313 3.866307000000006 774.562463-35.600566999999955 726.046492-35.600566999999955L726.046492-35.600566999999955zM726.046492 98.31439899999998c-25.327852 0-45.937239-20.605294-45.937239-45.936215 0-25.326828 20.61041-45.932122 45.937239-45.932122 25.326828 0 45.941332 20.606317 45.941332 45.932122C771.987824 77.70910500000002 751.373321 98.31439899999998 726.046492 98.31439899999998L726.046492 98.31439899999998zM726.046492 98.31439899999998M450.032158-35.600566999999955c-48.511877 0-87.972611 39.466873-87.972611 87.982844 0 48.510854 39.461757 87.977727 87.972611 87.977727 48.514947 0 87.982844-39.467897 87.982844-87.977727C538.015002 3.866307000000006 498.548128-35.600566999999955 450.032158-35.600566999999955L450.032158-35.600566999999955zM450.032158 98.31439899999998c-25.327852 0-45.932122-20.605294-45.932122-45.936215 0-25.326828 20.605294-45.932122 45.932122-45.932122 25.336038 0 45.941332 20.606317 45.941332 45.932122C495.97349 77.70910500000002 475.36922 98.31439899999998 450.032158 98.31439899999998L450.032158 98.31439899999998zM450.032158 98.31439899999998M358.571097 231.631754l-10.67206 4.790096c-10.934027 4.934382-12.30935 13.07069-15.641235 32.734542-1.734504 10.234085-4.070712 25.1324-6.941086 44.284599-4.818749 32.112372-11.245112 76.723406-19.089777 132.603087-13.353123 95.074356-26.380834 191.163831-26.511817 192.121646l0.461511 0.063445-1.807159 5.15337c-16.369829 46.720068-36.858466 100.9379-46.442752 121.193223-24.743544-0.267083-80.44824 0.203638-166.416194 1.38044l0.573051 42.040489c61.966307-0.845251 163.41893-1.937119 174.381609-1.301645 17.996886 2.282996 25.521257-14.926968 33.482579-33.136701 5.03262-11.507078 11.438517-27.522844 19.046798-47.593971 7.814989-20.605294 15.34857-41.423435 20.075221-54.655807 217.720673-0.670266 608.175433-1.791809 619.901499-1.5104 8.126075 0.208754 15.664771-4.103458 19.638269-11.293207 5.303796-9.602705 9.885138-17.898649-52.354392-210.2884-0.596588-1.836835-59.522652-183.756117-72.166623-202.696492-4.327562-6.470365-11.010775-10.157337-18.2302-10.171664-25.939789-0.723477-362.39468-0.776689-446.89419-0.781806L358.571097 231.631754 358.571097 231.631754zM323.355037 629.232261c16.612353-122.17969 41.413202-300.019051 50.254567-352.625176 138.368394 0.01535 368.232642 0.150426 423.252747 0.588401 21.649066 52.05661 96.501868 280.109606 113.338325 350.523305C809.905412 627.75563 427.060981 628.916059 323.355037 629.232261L323.355037 629.232261zM242.706229 764.798842c1.113357 0 2.27788 0.063445 3.473101 0.24764C245.5633 764.949268 244.401848 764.867404 242.706229 764.798842L242.706229 764.798842zM242.706229 764.798842"  horiz-adv-x="1024" />

    
    <glyph glyph-name="ranking" unicode="&#58883;" d="M844.8 768c28.2368 0 51.2-22.9632 51.2-51.2l0-665.6c0-28.2368-22.9632-51.2-51.2-51.2L179.2 0c-28.2368 0-51.2 22.9632-51.2 51.2L128 716.8c0 28.2368 22.9632 51.2 51.2 51.2L844.8 768M844.8 819.2 179.2 819.2C122.6496 819.2 76.8 773.3504 76.8 716.8l0-665.6c0-56.5504 45.8496-102.4 102.4-102.4l665.6 0c56.5504 0 102.4 45.8496 102.4 102.4L947.2 716.8C947.2 773.3504 901.3504 819.2 844.8 819.2L844.8 819.2zM796.1856 620.8c0-14.1312-12.5184-25.6-27.9552-25.6L465.7408 595.2c-15.4368 0-27.9552 11.4688-27.9552 25.6l0 0c0 14.1312 12.5184 25.6 27.9552 25.6L768.256 646.4C783.6928 646.4 796.1856 634.9312 796.1856 620.8L796.1856 620.8zM304.6144 693.8368 334.2592 653.9264 381.4144 638.0288 352.6144 597.4784 352.0768 547.7632 304.6144 562.6112 257.152 547.7632 256.6144 597.4784 227.8144 638.0288 274.944 653.9264ZM796.1856 384c0-14.1312-12.5184-25.6-27.9552-25.6L465.7408 358.4c-15.4368 0-27.9552 11.4688-27.9552 25.6l0 0c0 14.1312 12.5184 25.6 27.9552 25.6L768.256 409.6C783.6928 409.6 796.1856 398.1312 796.1856 384L796.1856 384zM304.6144 457.0368 334.2592 417.1264 381.4144 401.2544 352.6144 360.704 352.0768 310.9632 304.6144 325.8112 257.152 310.9632 256.6144 360.704 227.8144 401.2544 274.944 417.1264ZM796.1856 147.2c0-14.1312-12.5184-25.6-27.9552-25.6L465.7408 121.6c-15.4368 0-27.9552 11.4688-27.9552 25.6l0 0c0 14.1312 12.5184 25.6 27.9552 25.6L768.256 172.8C783.6928 172.8 796.1856 161.3312 796.1856 147.2L796.1856 147.2zM304.6144 220.2368 334.2592 180.3264 381.4144 164.4544 352.6144 123.904 352.0768 74.1632 304.6144 89.0112 257.152 74.1632 256.6144 123.904 227.8144 164.4544 274.944 180.3264Z"  horiz-adv-x="1024" />

    
    <glyph glyph-name="next" unicode="&#59160;" d="M849.911568-64.158996c13.8351 0 25.031093 11.193947 25.031093 25.031093L874.942661 807.12995c0 13.8351-11.195993 25.03007-25.031093 25.03007s-25.031093-11.19497-25.031093-25.03007l0-400.63461c0 11.95324-15.619746 22.440082-26.937512 29.528524L237.640863 786.669966c-9.850345 6.183839-18.381649 9.435906-29.822213 9.435906-33.927717 0-58.762335-27.572986-58.762335-61.476143L149.056316 33.370271c0-33.878598 24.125467-61.500703 58.053184-61.500703 11.440563 0 20.973684 3.275603 30.824029 9.486048l560.889477 350.633822c11.316743 7.089465 26.056446 17.574261 26.056446 29.5275l0-400.645866C824.880475-52.96505000000002 836.076468-64.158996 849.911568-64.158996zM768.464581 374.35124599999995L209.60432 23.740959999999973c-1.906419-1.172709-0.440022-1.809205-2.493797-1.809205-4.620227 0-7.993045 3.665483-7.993045 11.438517L199.117478 734.628706c0 7.822153 3.372817 11.414981 7.993045 11.414981 2.053776 0 2.322905-0.610914 4.229325-1.784646l557.956681-350.622566c4.64274-2.90926 4.936429-7.284917 4.936429-9.655917C774.232958 381.635139 773.083785 377.25948200000005 768.464581 374.35124599999995z"  horiz-adv-x="1024" />

    
    <glyph glyph-name="friends" unicode="&#58922;" d="M950.289895 259.88809200000003c-38.161726 55.038284-89.705979 96.340881-149.515429 120.154135 26.44567 18.505653 48.615439 43.317031 64.735509 72.28599 18.639163 33.501286 28.48069 71.656217 28.48069 110.446317 0 121.169647-93.862161 219.650477-209.087639 219.650477-16.356111 0-29.706459-13.348949-29.706459-29.724047 0-16.388489 13.350348-29.715853 29.706459-29.715853 82.496867 0 149.623355-71.915042 149.623355-160.211976 0-88.406061-67.126488-160.330696-149.623355-160.330696-16.356111 0-29.706459-13.342354-29.706459-29.707858l0-0.125315c0-16.380494 13.350348-29.724047 29.706459-29.724047 148.365208 0 269.146519-128.715931 269.146519-286.898483 0-16.373699 13.335359-29.722648 29.725446-29.722648 16.3723 0 29.721449 13.348949 29.721449 29.722648C1013.355937 129.91941099999997 991.565311 200.324076 950.289895 259.88809200000003M643.355197 310.39284999999995c-31.107709 22.041456-65.113053 39.546587-100.882602 51.882823 75.692281 45.977627 122.16757 127.954047 122.16757 217.004671 0 139.919535-113.856605 253.759951-253.781536 253.759951-140.053044 0-253.909649-113.839217-253.909649-253.885266 0-47.608122 13.350348-94.088808 38.555459-134.393281 21.410484-34.122865 50.379243-62.594161 84.637016-83.117047-36.540825-12.460352-70.923914-30.092197-102.519692-52.517993C143.111962 284.69947 112.883657 255.22905100000003 87.427716 221.47553600000003c-52.629917-70.277952-80.464645-153.774141-80.464645-241.685337 0-16.373699 13.350348-29.724047 29.724047-29.724047s29.724047 13.350348 29.724047 29.724047c0 91.56292 35.768149 177.954347 100.646562 243.070198 64.720719 64.987738 150.350263 100.757087 241.172885 100.882602 3.005962-0.25083 6.045501 0 9.052662 0.630972l2.408567 0.503059c88.400664-1.763804 171.399191-37.405239 234.621726-100.882602 64.848832-65.115851 100.505058-151.380564 100.505058-243.070198 0-16.373699 13.334159-29.724047 29.725446-29.724047 16.358909 0 29.692868 13.350348 29.692868 29.724047 0 87.911196-27.80235 171.405987-80.57517 241.692133C708.21902 256.488597 677.84901 285.959016 643.355197 310.39284999999995M410.860029 773.60839c107.180132 0 194.461555-87.281423 194.461555-194.453361s-87.281423-194.45356-194.461555-194.45356c-107.165342 0-194.461555 87.281423-194.461555 194.45356C216.398474 686.45388 303.693488 773.60839 410.860029 773.60839"  horiz-adv-x="1030" />

    
    <glyph glyph-name="earphone" unicode="&#58885;" d="M1194.17765 259.30085999999994l0 90.95702C1194.17765 649.535817 947.713467 896 645.501433 896l-26.406877 0C316.882521 896 73.352436 649.535817 73.352436 347.32378200000005l0-88.022923C29.340974 229.95988499999999 0 156.60744999999997 0 71.51862500000004c0-111.495702 49.879656-199.518625 111.495702-199.518625 61.616046 0 111.495702 90.95702 111.495702 199.518625 0 79.22063-26.406877 146.704871-61.616046 178.979943l0 96.825215C161.375358 602.590258 366.762178 807.977077 619.094556 807.977077L645.501433 807.977077c252.332378 0 460.653295-205.386819 460.653295-460.653295l0-93.891117c-38.143266-32.275072-64.550143-99.759312-64.550143-181.91404 0-111.495702 49.879656-199.518625 111.495702-199.518625 61.616046 0 111.495702 90.95702 111.495702 199.518625C1264.595989 156.60744999999997 1235.255014 229.95988499999999 1194.17765 259.30085999999994z"  horiz-adv-x="1265" />

    
    <glyph glyph-name="classify" unicode="&#58901;" d="M485.376 655.36C472.576 770.56 374.784 860.16 256.512 860.16 129.024 860.16 25.6 756.736 25.6 629.248c0-118.784 89.6-216.576 204.8-229.376L230.4 399.36l5.12 0c0 0 0 0 0 0l0 0L435.2 399.36c28.16 0 51.2 2.56 51.2 30.72L486.4 640 485.376 655.36zM435.2 501.76c0-28.16-17.92-51.2-46.08-51.2L241.152 450.56l-5.12 0.512c-89.6 10.24-158.72 86.016-158.72 178.176C76.8 728.576 157.184 808.96 256.512 808.96 350.208 808.96 427.008 736.768 435.2 644.608l0 0L435.2 501.76zM767.488 860.16c-118.784 0-216.064-89.6-229.376-204.8l-1.024-15.36 0-209.92c0-28.16 23.04-30.72 51.2-30.72l199.168 0 0 0c0 0 0 0 0 0l5.12 0 0 0.512c115.2 12.8 204.8 110.592 204.8 229.376C998.4 756.736 894.976 860.16 767.488 860.16zM787.968 451.072l-5.12-0.512L634.88 450.56c-28.16 0-46.08 23.04-46.08 51.2L588.8 644.608l0 0c7.68 92.16 84.992 164.352 178.688 164.352 99.328 0 179.2-80.384 179.2-179.712C947.2 537.088 877.568 461.312 787.968 451.072zM435.2 348.15999999999997L236.032 348.15999999999997l0 0c0 0 0 0 0 0l-5.12 0 0-0.512c-115.2-12.8-204.8-110.592-204.8-229.376C25.6-9.216000000000008 129.024-112.63999999999999 256.512-112.63999999999999c118.784 0 216.064 89.6 229.376 204.8l1.024 15.36 0 209.92C486.4 345.6 463.36 348.15999999999997 435.2 348.15999999999997zM435.2 102.91200000000003L435.2 102.91200000000003c-8.192-92.16-84.992-164.352-178.688-164.352-99.328 0-179.2 80.384-179.2 179.712 0 92.16 69.632 167.936 158.72 178.176l5.12 0.512L389.12 296.96000000000004c28.16 0 46.08-23.04 46.08-51.2L435.2 102.91200000000003zM793.6 347.648L793.6 348.15999999999997l-5.12 0c0 0 0 0 0 0l0 0L588.8 348.15999999999997c-28.16 0-51.2-2.56-51.2-30.72l0-209.92 1.024-15.36c12.8-115.2 110.592-204.8 229.376-204.8 127.488 0 230.912 103.424 230.912 230.912C998.4 237.05600000000004 908.8 334.84799999999996 793.6 347.648zM767.488-61.440000000000055c-93.696 0-171.008 72.192-178.688 164.352l0 0L588.8 245.76c0 28.16 17.92 51.2 46.08 51.2l147.968 0 5.12-0.512c89.6-10.24 158.72-86.016 158.72-178.176C947.2 18.94399999999996 866.816-61.440000000000055 767.488-61.440000000000055z"  horiz-adv-x="1024" />

    
    <glyph glyph-name="play1" unicode="&#58906;" d="M512-128C229.2-128 0 101.20000000000005 0 384S229.2 896 512 896s512-229.2 512-512S794.8-128 512-128zM512 864C245.9 864 32 650.1 32 384s213.9-480 480-480c266.2 0 480 213.9 480 480C992 650.1 778.1 864 512 864zM768 384L384 160 384 608 768 384z"  horiz-adv-x="1024" />

    
    <glyph glyph-name="box" unicode="&#59182;" d="M902.064 491.6l-70.912 209.888C810.448 762.304 784.416 800 718.72 800L305.28 800c-67.984 0-94.944-49.68-112.432-98.56L121.936 491.6C106.096 477.648 96 457.872 96 435.76l0-391.52C96 2.20799999999997 131.888-32 176-32l672 0c44.112 0 80 34.208 80 76.24l0 391.52C928 457.872 917.904 477.648 902.064 491.6zM223.056 690.928C243.184 747.104 265.472 768 305.28 768l413.44 0c43.44 0 61.856-17.232 82.128-76.8l60.992-180.528C857.328 511.424 852.736 512 848 512L176 512c-4.736 0-9.328-0.576-13.84-1.328L223.056 690.928zM896 44.24000000000001C896 19.840000000000032 874.464 0 848 0L176 0c-26.464 0-48 19.84-48 44.24l0 391.52C128 460.16 149.536 480 176 480l672 0c26.464 0 48-19.84 48-44.24L896 44.24000000000001zM672 416L352 416c-26.464 0-48-21.536-48-48l0-64c0-26.464 21.536-48 48-48l320 0c26.464 0 48 21.536 48 48l0 64C720 394.464 698.464 416 672 416zM688 304c0-8.832-7.168-16-16-16L352 288c-8.816 0-16 7.168-16 16l0 64c0 8.816 7.184 16 16 16l320 0c8.832 0 16-7.184 16-16L688 304zM352 672l320 0c8.848 0 16 7.168 16 16s-7.152 16-16 16L352 704c-8.832 0-16-7.168-16-16S343.168 672 352 672zM320 576l384 0c8.848 0 16 7.168 16 16s-7.152 16-16 16L320 608c-8.832 0-16-7.168-16-16S311.168 576 320 576z"  horiz-adv-x="1024" />

    
    <glyph glyph-name="collect" unicode="&#58886;" d="M59.891-43.702999999999975c-19.371 0-51.871 9.172-51.871 70.516L8.02 742.246c0.051 2.793 2.129 71.922 76.133 71.922l312.281 0 1.059 0.227-0.004 0c0.02 0 1.461 0.242 3.859 0.242 8.918 0 31.957-3.469 53.211-35.617 29.625-44.824 46.457-69.816 46.621-70.063l0.406-0.602 0.484-0.543c0.594-0.652 14.758-16.02 42.109-16.016l1.617 0.02 0 0.063c2-0.172 4.086-0.18 6.109-0.191 4.688-0.023 11.516-0.043 20.078-0.055 17.109-0.031 41.172-0.043 68.977-0.043 120.258 0 310.477 0.223 310.477 0.223l0.523 0 0.516 0.055c0.18 0.016 1.492 0.121 3.586 0.121 20.594 0 55.156-7.75 55.156-59.656l0-637.223 0.219-1.039c0.078-0.414 2.219-12.344-6-22.25-8.172-9.852-24.641-15.07-47.641-15.07L66.184-43.249000000000024l-0.828-0.133C65.359-43.375 63.234-43.702999999999975 59.891-43.702999999999975zM156.691 761.785c-94.523 0-96.707-91.461-96.719-92.383l0-569.262c0-34.922 9.484-60.453 28.188-75.906 16.008-13.219 34.609-15.203 44.277-15.203 3.672 0 6.441 0.281 7.832 0.453l745.152 0c24.5 0 43.516 7.563 56.523 22.453 21.008 24.063 18.148 58.766 17.492 64.531L959.436 559.957c0 59.164-39.133 80.246-75.75 80.246-2.453 0-4.219-0.109-5.078-0.176-9.891-0.016-184.531-0.223-295.844-0.223-71.383 0-88.73 0.086-90.664 0.16l0 0.059-1.172-0.012c-15.902 0-24.586 7.148-26.508 8.938-3.055 4.445-19.301 28.164-45.934 68.457-26.762 40.48-58.121 44.848-70.363 44.848-3.125 0-5.484-0.258-6.859-0.469L156.691 761.785 156.691 761.785zM313.264 360.98400000000004L718.688 360.98400000000004 718.688 303.06399999999996 313.264 303.06399999999996ZM544.936 534.736L544.936 129.312 487.016 129.312 487.016 534.736Z"  horiz-adv-x="1028" />

    
    <glyph glyph-name="more" unicode="&#58963;" d="M511.962074 668.444444C553.889185 668.444444 587.851852 702.407111 587.851852 744.277333 587.851852 786.185481 553.889185 820.148148 511.962074 820.148148 470.129778 820.148148 436.148148 786.185481 436.148148 744.277333 436.148148 702.407111 470.129778 668.444444 511.962074 668.444444zM511.962074 459.851852C470.129778 459.851852 436.148148 425.889185 436.148148 384s33.98163-75.851852 75.832889-75.851852C553.889185 308.148148 587.851852 342.110815 587.851852 384S553.889185 459.851852 511.962074 459.851852zM511.962074 99.55555600000002C470.129778 99.55555600000002 436.148148 65.59288900000001 436.148148 23.703704000000016s33.98163-75.851852 75.832889-75.851852C553.889185-52.14814799999999 587.851852-18.18548099999998 587.851852 23.703704000000016S553.889185 99.55555600000002 511.962074 99.55555600000002z"  horiz-adv-x="1024" />

    
    <glyph glyph-name="comment" unicode="&#58923;" d="M625.105455-112.05818199999999l-55.016727 187.229091L116.340364 75.17090900000005c-64.162909 0-116.340364 52.200727-116.340364 116.363636L0 726.830545c0 64.162909 52.177455 116.363636 116.340364 116.363636l791.319273 0c64.162909 0 116.340364-52.200727 116.340364-116.363636L1024 191.53454499999998c0-64.162909-52.177455-116.363636-116.340364-116.363636l-121.344 0L625.105455-112.05818199999999zM116.340364 796.648727C77.870545 796.648727 46.545455 765.323636 46.545455 726.830545L46.545455 191.53454499999998c0-38.493091 31.325091-69.818182 69.794909-69.818182l488.564364 0 40.750545-138.589091 119.296 138.589091 142.708364 0c38.469818 0 69.794909 31.325091 69.794909 69.818182L977.454545 726.830545c0 38.493091-31.325091 69.818182-69.794909 69.818182L116.340364 796.648727zM849.431273 540.648727l-674.909091 0c-12.869818 0-23.272727 10.426182-23.272727 23.272727s10.402909 23.272727 23.272727 23.272727l674.909091 0c12.869818 0 23.272727-10.426182 23.272727-23.272727S862.301091 540.648727 849.431273 540.648727zM616.727273 354.44363599999997L174.522182 354.44363599999997c-12.869818 0-23.272727 10.426182-23.272727 23.272727s10.402909 23.272727 23.272727 23.272727L616.727273 400.989091c12.869818 0 23.272727-10.426182 23.272727-23.272727S629.597091 354.44363599999997 616.727273 354.44363599999997z"  horiz-adv-x="1024" />

    
    <glyph glyph-name="ntes-music" unicode="&#58881;" d="M812.688 452.365c-53.338 53.338-122.877 84.571-197.517 89.152-4.864 13.476-9.237 28.122-12.955 44.445-5.406 23.756-9.41 51.082-11.482 83.564-0.506 7.925-0.895 16.16-1.163 24.724-0.258 8.306-0.402 16.927-0.421 25.875-0.031 0.003-0.059 0.006-0.09 0.013 0.023 0.226 0.061 0.45 0.087 0.678 5.899 51.69 50.605 91.766 104.187 90.233 37.757-1.079 70.706-23.047 87.364-54.811l50.365 9.678c-19.821 49.354-64.973 85.924-119.381 93.387-87.442 11.994-163.263-51.161-172.043-134.026-0.073-0.693-0.119-2.478-0.146-3.174l-0.001-6.676c0.018-5.903 0.16-15.092 0.539-25.67 0.183-5.153 0.419-10.23 0.693-15.251 2.775-50.809 10.176-94.917 22.415-133.85 0.03-0.09 0.057-0.177 0.086-0.268-27.769-2.932-54.72-9.59-80.274-19.713l-0.018-0.002-0.034-0.017c-38.362-15.204-73.57-38.233-103.627-68.291l9.538 8.534c-40.682-39.699-65.986-95.088-65.986-156.285 0-29.763 5.99-58.148 16.817-84.031 25.825-61.738 79.205-109.18 144.684-126.881 17.221-5.375 35.525-8.272 54.494-8.272 10.11 0 20.029 0.837 29.698 2.419 86.973 14.235 153.556 89.901 153.556 180.838 0 20.773-3.481 40.749-9.879 59.378-13.142 54.395-34.294 91.456-54.922 127.561-6.288 11.01-12.514 21.913-18.499 33.241 10.198-1.718 20.194-4.039 29.951-6.925 106.276-31.444 184.048-129.946 184.048-246.284 0-59.882-20.607-115.04-55.097-158.762-24.484-27.394-53.099-51.013-84.861-69.881-53.554-31.809-116.031-50.11-182.708-50.11-27.403 0-54.094 3.1-79.754 8.944-159.635 36.365-279.132 179.455-279.132 349.94 0 177.598 129.68 325.454 299.316 353.913l-6.546 49.329c-83.813-13.561-161.087-52.819-222.371-113.935-76.53-76.319-119.827-180.26-120.076-288.341-0.253-109.839 42.541-213.123 120.404-290.601 77.532-77.148 183.19-120.052 292.559-118.903 72.921 0.765 142.794 20.532 203.967 56.93 27.007 14.218 52.015 32.573 74.211 54.769 8.033 8.033 15.546 16.446 22.559 25.174 43.538 54.177 67.203 121.031 67.203 191.533 0 31.259-4.661 61.796-13.632 90.835-14.522 47.012-40.351 90.09-76.132 125.871ZM403.266 473.834c0.771 0.633 1.557 1.249 2.338 1.872-0.835-0.662-1.665-1.331-2.491-2.006l0.151 0.134ZM664.427 314.149c3.326-14.137 6.031-29.586 7.954-46.765-0.627-65.317-48.367-119.567-110.8-130.331-6.657-0.801-13.428-1.225-20.295-1.225-14.779 0-29.116 1.916-42.786 5.5-72.415 18.99-125.996 84.994-125.996 163.282 0 22.391 4.393 43.772 12.346 63.341 10.096 24.843 25.936 46.761 45.873 64.083 3.514 2.963 7.102 5.837 10.773 8.609 39.492 29.837 87.838 48.543 140.336 51.408 4.418-9.674 8.997-18.804 13.654-27.585 4.962-9.356 10.011-18.32 15.036-27.143 1.209-2.122 2.416-4.235 3.62-6.343 19.814-34.679 38.772-67.897 50.285-116.832Z"  horiz-adv-x="1024" />

    
    <glyph glyph-name="calender" unicode="&#59056;" d="M931.457304 799.987273l-92.798523 0L838.658781 869.58642c0 12.801561-10.377348 23.199375-23.199375 23.199375-12.822027 0-23.199375-10.397814-23.199375-23.199375l0-69.599148L235.466849 799.987273 235.466849 869.58642c0 12.801561-10.377348 23.199375-23.199375 23.199375-12.82305 0-23.199375-10.397814-23.199375-23.199375l0-69.599148L96.268554 799.987273c-51.248198 0-92.798523-41.550325-92.798523-92.822059l0-742.366691c0-51.248198 41.550325-92.798523 92.798523-92.798523l835.18875 0c51.248198 0 92.798523 41.550325 92.798523 92.798523L1024.255827 707.165214C1024.255827 758.436948 982.705502 799.987273 931.457304 799.987273zM977.856054-35.201476999999954c0-25.623587-20.775162-46.399773-46.399773-46.399773L96.268554-81.60125000000005c-25.624611 0-46.399773 20.775162-46.399773 46.399773L49.868781 521.590682l927.987273 0L977.856054-35.201476999999954zM977.856054 567.990454L49.868781 567.990454 49.868781 707.165214c0 25.647123 20.775162 46.422286 46.399773 46.422286l92.798523 0 0-69.599148c0-12.822027 10.376325-23.199375 23.199375-23.199375 12.822027 0 23.199375 10.377348 23.199375 23.199375l0 69.599148 556.792159 0 0-69.599148c0-12.822027 10.377348-23.199375 23.199375-23.199375 12.822027 0 23.199375 10.377348 23.199375 23.199375l0 69.599148 92.798523 0c25.623587 0 46.399773-20.775162 46.399773-46.422286L977.85503 567.990454zM677.235298 35.01063099999999l43.386136 0L720.621435 407.722284l-33.168424 0c-2.400676-14.000875-6.818289-25.557072-13.275351-34.685987-6.479575-9.108448-14.365172-16.291035-23.744797-21.545712-9.356089-5.256724-19.800975-8.859785-31.377638-10.762111-11.576663-1.948375-23.494087-2.90005-35.729759-2.90005l0-35.750225 93.909833 0L677.235298 35.01063099999999zM312.768423 60.497094999999945c10.534937-10.331299 23.290449-18.123776 38.289048-23.3805 14.954597-5.256724 31.628348-7.885598 50.001811-7.885598 17.014512 0 33.100886 2.356674 48.234561 7.092535s28.319999 11.827373 39.557948 21.297049c11.237949 9.469676 20.163225 21.295002 26.7789 35.479049 6.6607 14.205537 9.969049 30.584576 9.969049 49.1627 0 22.429849-5.347798 41.868573-16.086373 58.361199-10.716063 16.448624-27.14115 27.143197-49.252751 32.05916l0 1.041726c14.295588 6.6607 26.190499 16.47216 35.727713 29.451776 9.537214 12.95915 14.295588 27.844162 14.295588 44.677549 0 17.172101-2.808976 32.080649-8.428973 44.677549-5.618974 12.618389-13.365402 22.948665-23.199375 31.015388-9.877975 8.066723-21.545712 14.114462-34.980699 18.146289-13.458523 4.034896-28.001751 6.027274-43.633776 6.027274-18.035772 0-33.938973-2.946099-47.714721-8.927323-13.773701-5.957689-25.282826-14.182001-34.458813-24.693402-9.174963-10.511401-16.243963-23.155373-21.183462-37.859259-4.939499-14.724353-7.748475-31.015388-8.42795-48.891524l43.386136 0c0 10.853186 1.359974 21.206998 4.101411 31.015388 2.718925 9.81146 6.885827 18.396999 12.504802 25.76071 5.595438 7.363711 12.734022 13.230326 21.434172 17.603937 8.653077 4.394077 18.779715 6.593162 30.359448 6.593162 18.371416 0 33.688263-5.009084 45.944402-14.998599 12.235672-9.992585 18.35095-24.967648 18.35095-44.928259 0-9.831926-1.856277-18.599613-5.595438-26.301016-3.76065-7.704472-8.767688-14.114462-15.066137-19.191084-6.29845-5.073552-13.616112-8.927323-21.930475-11.576663-8.361435-2.605338-17.128099-3.941775-26.304086-3.941775l-14.295588 0c-1.359974 0-2.90005 0.181125-4.577249 0.543376l0-37.857213c8.156774 1.041726 16.833387 1.584078 26.009374 1.584078 10.899234 0 21.025872-1.494027 30.381961-4.463662 9.356089-2.990101 17.422811-7.544837 24.241101-13.68365 6.820336-6.138814 12.256138-13.662161 16.335037-22.60995 4.078899-8.927323 6.117324-19.191084 6.117324-30.744211 0-11.214413-2.1295-21.297049-6.365988-30.222325-4.259-8.927323-9.945513-16.47216-17.105586-22.60995-7.15905-6.14086-15.496949-10.875698-25.013697-14.184047-9.513678-3.352351-19.573801-5.007037-30.108738-5.007037-24.854061 0-43.726897 7.634888-56.662511 22.88215-12.913101 15.225773-19.733437 34.95921-20.412912 59.133795l-43.386136 0c-0.318248-19.281135 2.311649-36.453237 7.930623-51.519374C294.145274 83.56037000000003 302.211996 70.85193000000004 312.768423 60.497094999999945z"  horiz-adv-x="1025" />

    
    <glyph glyph-name="car" unicode="&#58998;" d="M916.78821 420.770462c15.598256 13.217023 25.517163 32.918737 25.517163 54.897308 0 39.629579-32.243355 71.872934-71.871911 71.872934l-23.856337 0-16.337083 53.80544c-12.45466 40.786938-36.396955 69.755714-71.170946 86.116333-13.326517 6.315846-33.994232 12.668531-49.981345 12.668531l-75.718519 0 0 10.308787c0 30.889521-20.008706 55.073316-45.526893 55.073316l-138.944516 0c-25.518187 0-45.526893-24.183795-45.526893-55.073316l0-10.308787-86.637196 0c-15.992229 0-36.610826-6.358825-49.981345-12.646018-34.779108-16.383132-58.722426-45.351907-71.169923-86.160335l-16.383132-53.78395-20.008706 0c-39.629579 0-71.872934-32.243355-71.872934-71.872934 0-21.100574 9.129938-40.083927 23.636327-53.255924-27.65792-22.76447-45.438888-57.806567-45.438888-97.039103L65.515133 189.75192400000003c0-2.162246 0.696872-7.100722 1.310855-9.152451 2.75474-9.238408 9.699919-17.780969 20.799722-25.626657l0-85.396949c0-36.984333 30.016641-67.088978 66.89148-67.088978l46.88175 0c36.875862 0 66.89148 30.126134 66.89148 67.154469l0 38.822191c14.023388-1.37737 27.481911-2.424212 39.936571-3.319605 71.256904-5.135974 143.041834-5.567809 204.693985-5.567809 61.651129 0 133.430942 0.437975 204.695009 5.567809 12.580526 0.89437 26.126031 1.964748 40.281425 3.342118l0-38.844703c0-37.028335 29.971615-67.154469 66.846454-67.154469l46.925752 0c36.875862 0 66.847477 30.104645 66.847477 67.088978l0 85.632309c10.92277 7.818059 17.824971 16.360619 20.534685 25.605168 0.571005 1.986237 1.266853 6.858198 1.266853 8.93858L960.318632 325.372741C960.301236 363.68941900000004 943.353239 397.984503 916.78821 420.770462zM875.157044 520.252197c22.417569 0 40.71326-18.260899 40.71326-40.71326 0-19.338441-13.503549-35.565007-31.599695-39.698141l-24.451902 80.410378L875.157044 520.251174zM430.741301 719.948355c0 12.302187 3.102664 19.810185 0.994654 19.851117l172.889629 1.297552c1.105171-1.338485 4.26514-8.856715 4.26514-21.158902l0-19.807115L430.741301 700.131007 430.741301 719.948355zM227.946572 589.6477070000001c9.026584 29.683043 25.127284 49.617048 49.206702 60.933791 0 0.022513 0 0.022513 0.046049 0.022513 10.160407 4.806469 24.534789 8.708336 32.063253 8.708336l407.278937 0c7.528464 0 21.904892-3.901867 32.110325-8.730848 24.085558-11.316743 40.185234-31.249725 49.206702-60.911278l43.858904-144.112212L184.04162 445.558008 227.946572 589.6477070000001zM163.134451 520.9439520000001l10.460236 0-26.221198-86.138846c-16.756639 6.377244-28.720112 22.63144-28.720112 41.655725C118.652354 500.991528 138.63957 520.9439520000001 163.134451 520.9439520000001zM232.241388 65.64637200000004c0-14.727423-11.815093-26.691919-26.37981-26.691919l-55.834656 0c-14.779611 0-26.37981 11.682064-26.37981 26.614148l0 76.67224c5.411243-1.795902 11.082406-3.567245 17.067724-5.253654 23.673166-6.736425 48.548716-11.918447 73.41915-16.002462l18.10638-4.946662L232.240365 65.64637200000004zM875.269607 40.537508l-54.16462 0c-14.071484 0-25.521257 11.602246-25.521257 25.869181l0 48.844451 18.10638 4.939499c23.805172 3.933589 47.608298 8.930393 70.198805 15.357779 5.901407 1.691525 11.55108 3.432169 16.895809 5.217838l0-74.435293 0.00614 0C900.790864 51.85425099999998 889.594871 40.537508 875.269607 40.537508zM910.140813 183.150576l-94.51563-25.797549c-33.752732-5.456269-67.780733-8.426927-96.569406-10.503215-71.402213-5.143137-143.824663-5.563716-206.154243-5.563716s-134.75203 0.426719-206.154243 5.563716c-28.571732 2.054799-62.23339 5.007037-95.723132 10.374278l-95.768157 26.134217c-6.707772 3.217275-11.756765 6.238075-14.394848 8.606005L100.861152 326.561823c0 40.48404 28.39163 74.124208 65.411779 80.226183l1.566682 0c2.143826 0 4.248767 0.291642 6.259564 0.870834 1.385557 0.068562 2.818185 0.112564 4.249791 0.112564l669.110247 0c42.739407 0 77.480652-36.435841 77.480652-81.214696l0.001023-134.617977C922.211732 189.54624 917.024593 186.43641200000002 910.140813 183.150576zM263.297708 357.09625700000004c-42.383296 0-76.854389-34.471093-76.854389-76.854389 0-42.382273 34.471093-76.854389 76.854389-76.854389s76.854389 34.473139 76.854389 76.854389C340.15312 322.62516400000004 305.682028 357.09625700000004 263.297708 357.09625700000004zM263.297708 238.30575699999997c-23.105231 0-41.935088 18.800181-41.935088 41.935088s18.827811 41.935088 41.935088 41.935088c23.107277 0 41.935088-18.800181 41.935088-41.935088C305.239959 257.10696099999996 286.412149 238.30575699999997 263.297708 238.30575699999997zM745.507218 357.09625700000004c-42.383296 0-76.854389-34.471093-76.854389-76.854389 0-42.382273 34.471093-76.854389 76.854389-76.854389 42.383296 0 76.854389 34.473139 76.854389 76.854389C822.36263 322.62516400000004 787.890514 357.09625700000004 745.507218 357.09625700000004zM745.507218 238.30575699999997c-23.105231 0-41.935088 18.800181-41.935088 41.935088s18.827811 41.935088 41.935088 41.935088c23.107277 0 41.935088-18.800181 41.935088-41.935088C787.449469 257.10696099999996 768.621659 238.30575699999997 745.507218 238.30575699999997z"  horiz-adv-x="1024" />

    
    <glyph glyph-name="preMusic" unicode="&#58880;" d="M174.087 832.16c-13.835 0-25.030-11.195-25.030-25.030v-846.258c0-13.836 11.195-25.031 25.030-25.031 13.836 0 25.030 11.194 25.030 25.031v404.728c0-14.396 8.678-26.986 21.853-35.272l550.794-347.115c10.17-6.404 24.836-9.778 36.665-9.778 35.004 0 66.513 28.501 66.513 63.457v694.217c0 34.98-32.756 63.432-67.734 63.432-11.808 0-25.568-3.373-35.738-9.753l-549.449-347.103c-13.175-8.262-22.904-20.874-22.904-35.248l-0 404.693c0 13.835-11.195 25.030-25.030 25.030zM242.701 395.299l553.238 347.079c2.223 1.393 8.848 2.102 11.269 2.102 6.427 0 17.672-5.108 17.672-13.371v-694.217c0-11.342-16.524-16.379-24.664-11.294l-555.365 347.115c-5.622 3.569-7.333 9.093-7.333 11.293 0 2.249-0.44 7.773 5.182 11.293z"  horiz-adv-x="1024" />

    
    <glyph glyph-name="cloud" unicode="&#58903;" d="M958.976 245.24800000000005c0 89.088-53.76 166.4-130.56 200.192 0.512 1.536 0.512 2.56 0.512 4.096 0 78.336-30.208 151.552-85.504 206.848-55.296 55.296-128.512 85.504-206.848 85.504-71.168 0-139.776-26.112-193.536-73.216-51.2-45.056-84.992-106.496-95.744-173.056-42.496-10.24-80.896-31.744-112.64-62.976-45.056-45.056-69.632-104.448-69.632-168.448 0-63.488 24.576-123.392 69.632-168.448 45.056-45.056 104.448-69.632 168.448-69.632h442.88c117.248 3.072 212.992 100.352 212.992 219.136z m-218.624-172.544H302.592c-105.984 0-192 86.016-192 192s86.016 192 192 192 192-86.016 192-192c0-12.8 10.24-23.04 23.04-23.04s23.04 10.24 23.04 23.04c0 63.488-24.576 123.392-69.632 168.448-45.056 45.056-104.448 69.632-168.448 69.632h-7.68c24.576 111.616 124.416 194.048 240.64 194.048 132.608 0 241.152-104.96 246.272-236.544-13.824 2.56-27.648 4.096-41.984 4.096-12.8 0-23.04-10.24-23.04-23.04s10.24-23.04 23.04-23.04c95.232 0 172.544-77.312 172.544-172.544 0.512-95.744-77.312-173.056-172.032-173.056z"  horiz-adv-x="1024" />

    
    <glyph glyph-name="play-list" unicode="&#59025;" d="M924.243507 891.871983c-19.098987 0-33.423227-15.916505-33.423227-33.424251v-555.47107c-76.394924 55.706743-198.951191 55.706743-310.3657-7.957229-136.876414-79.582523-197.357903-224.419236-140.060943-329.462641 58.890248-108.232027 218.050178-122.556267 354.930685-42.973743 105.045451 62.072731 167.119205 162.343435 162.343435 253.067716V858.447732c0 17.507746-14.32424 33.42425-33.42425 33.424251zM773.04183-21.712255000000027c-101.863992-60.48149-226.007407-58.891272-273.756921 12.732999-47.747467 73.212442 1.592264 189.401698 101.863992 249.879094 101.861946 60.48149 230.783177 58.892295 278.531668-14.32424 46.155203-71.618131-6.368034-186.215122-106.638739-248.287853zM109.339756 586.2830759999999h611.178836c19.098987 0 33.423227 15.916505 33.423227 33.423227 0 19.098987-15.916505 33.42425-33.423227 33.42425H109.339756c-19.098987 0-33.42425-15.916505-33.424251-33.42425 0.001023-19.101033 14.325263-33.423227 33.424251-33.423227zM109.339756 790.009014h611.178836c19.098987 0 33.423227 15.916505 33.423227 33.423227 0 19.098987-15.916505 33.42425-33.423227 33.42425H109.339756c-19.098987 0-33.42425-15.916505-33.424251-33.42425 0.001023-17.506722 14.325263-33.423227 33.424251-33.423227zM109.339756 382.557138h374.028648c19.098987 0 33.42425 15.916505 33.424251 33.424251 0 19.098987-15.916505 33.42425-33.424251 33.42425h-374.028648c-19.098987 0-33.42425-15.916505-33.424251-33.42425 0.001023-19.101033 14.325263-33.42425 33.424251-33.424251zM313.066717 245.67765499999996H109.339756c-19.098987 0-33.42425-15.918551-33.424251-33.421181 0-19.102057 15.916505-33.42425 33.424251-33.42425h203.725937c19.098987 0 33.423227 15.915481 33.423228 33.42425 0.001023 19.094894-14.323217 33.42118-33.422204 33.421181z"  horiz-adv-x="1024" />

    
    <glyph glyph-name="clock" unicode="&#58916;" d="M764.873 638.738c-32.875 32.873-71.155 58.682-113.79 76.717-44.15 18.672-91.035 28.14-139.36 28.14-48.32 0-95.207-9.467-139.357-28.14-42.635-18.035-80.919-43.845-113.792-76.717-32.87-32.873-58.682-71.157-76.715-113.79-18.672-44.15-28.142-91.037-28.142-139.36 0-48.317 9.47-95.207 28.142-139.357 18.032-42.635 43.842-80.921 76.715-113.79 4.965-4.965 10.065-9.745 15.271-14.385l-66.702-66.7 29.305-29.305 70.105 70.1c20.527-14.38 42.515-26.57 65.812-36.43 44.15-18.67 91.037-28.14 139.357-28.14 48.325 0 95.21 9.47 139.36 28.14 23.295 9.86 45.285 22.05 65.81 36.43l70.105-70.1 29.305 29.305-66.705 66.7c5.21 4.64 10.31 9.42 15.275 14.385 32.87 32.87 58.685 71.155 76.715 113.79 18.675 44.15 28.14 91.04 28.14 139.357 0 48.322-9.465 95.21-28.14 139.36-18.03 42.633-43.84 80.918-76.715 113.79ZM735.568 161.74699999999996c-59.79-59.795-139.29-92.72-223.842-92.72-84.557 0-164.055 32.925-223.844 92.72-59.792 59.79-92.72 139.285-92.72 223.842s32.927 164.055 92.72 223.844c59.79 59.79 139.287 92.72 223.844 92.72 84.553 0 164.052-32.927 223.842-92.72 59.79-59.79 92.72-139.287 92.72-223.844s-32.93-164.052-92.72-223.842ZM510.751 560.751h-41.445v-247.429h165.287v41.45h-123.842v205.979ZM112.877 631.0930000000001l148.82 148.82 36.63-36.631-148.82-148.82-36.63 36.633ZM725.113 743.278l36.63 36.63 148.82-148.82-36.63-36.633-148.82 148.822Z"  horiz-adv-x="1024" />

    
    <glyph glyph-name="vip" unicode="&#59027;" d="M512.36225-24.550906000000055c-11.813047 0-23.299659 4.169973-40.958854 24.522509l-160.270216 184.354752C211.523531 298.84966799999995 125.498272 397.754259 85.317131 444.519352l-0.919952 1.070378-0.76441 1.188059c-22.804379 35.421744-22.598694 71.154573 0.559748 98.065479 20.638039 24.551162 63.714114 74.294077 105.37291 122.399701 35.671431 41.180911 66.874083 77.231989 87.473237 101.370759 17.699104 20.714787 30.496571 23.568788 41.690518 23.568788 1.574868 0.00307 163.375951 0.369414 276.846282 0.369414 64.304562 0 103.373369-0.125867 110.009509-0.353041 18.575054-0.729617 27.060309-9.003048 41.673122-24.793686C783.249821 728.606549 864.349907 633.779833 907.919215 582.8345340000001c15.487739-18.10024 27.702945-32.367175 32.317033-37.644365l0.342807-0.402159c24.512277-29.535687 19.941168-74.771961 0.294713-98.490152l-0.235361-0.278339C894.990764 392.873088 808.874431 293.87537599999996 717.701942 189.06630900000005L553.323151-0.0427230000000236c-17.724687-20.407796-28.814256-24.508183-40.960901-24.508183z m-395.035078 494.625284c40.502459-47.120181 125.914758-145.32176 224.690412-258.885212l160.290683-184.377264c5.201465-5.994528 8.439206-8.763594 10.087752-9.977236 1.639337 1.224898 4.846378 4.002151 10.030448 9.970072l164.389024 189.120289C777.85495 320.58162200000004 863.84644 419.43607 909.447011 472.525196c7.483438 9.18622 11.162224 32.007995-0.222058 45.950541-4.886287 5.596462-17.051351 19.804045-32.408107 37.752836-43.385113 50.728358-124.136252 145.146774-159.583578 183.359075-2.329045 2.51631-9.182127 9.921977-11.750625 11.615548a20.408819 20.408819 0 0 1-1.400906 0.093121c-2.14792 0.073678-16.628726 0.325411-108.504227 0.325411-113.424282 0-275.178293-0.36532-276.79921-0.369413-0.251733 0-0.536212 0-0.759293-0.00307-0.852414-0.448208-4.041036-2.415003-9.849322-9.213849-20.682042-24.235984-51.936883-60.347436-87.660502-101.588723-41.617863-48.058552-84.655052-97.756441-105.064894-122.039497l-0.177032-0.207731c-10.790764-12.494569-10.093892-28.681226 2.059915-48.125067zM689.083138 517.282562l-177.286776-227.051179-177.057555 227.668233c-1.809205 2.845815-2.355651 2.845815-4.920056 2.845815h-86.383416v-39.919175h2.073218c16.330944 0 22.384823-4.247744 29.085432-13.189394 0.656963-0.89744 1.430582-1.920746 2.971681-3.827165 38.936801-52.939723 191.544501-238.401692 234.617506-296.163233 43.057655 57.802474 195.568141 243.392356 235.023758 296.893874 0.954745 1.1328 1.698688 2.142803 2.355651 3.025916 6.742565 8.983605 12.811794 13.260002 29.070082 13.260002h1.961678V520.811946H694.52201c-2.426259 0.001023-3.15383 0.001023-5.438872-3.529384z"  horiz-adv-x="1024" />

    
    <glyph glyph-name="location" unicode="&#58888;" d="M521.024-88.60799999999995c-27.68 0-50.592 20.736-53.152 23.104-0.288 0.288-21.632 20.928-121.216 120.48-73.984 73.92-127.968 163.584-153.536 210.336l-6.24 11.488c-4.704 9.152-7.232 14.24-7.232 14.24a22.912 22.912 0 0 0-1.568 4.352 372.736 372.736 0 0 0-33.504 154.528c0 207.616 168.896 376.448 376.48 376.448S897.472 657.504 897.472 449.92c0-53.472-11.296-105.6-33.632-154.912a25.92 25.92 0 0 0-1.504-3.968l-13.632-26.016c-25.44-46.56-79.424-136.032-153.376-210.048-99.584-99.648-120.864-120.192-120.864-120.192-2.816-2.656-25.792-23.392-53.376-23.392z m-296.448 397.76l10.688-20.448c24.544-44.768 75.744-129.92 145.504-199.584 98.624-98.624 120.096-119.456 120.352-119.744 4.064-3.68 13.632-9.696 19.904-9.696 6.688 0 16.992 7.072 20.128 9.984 0 0 21.568 21.024 120 119.456 69.696 69.664 120.96 154.816 145.344 199.392l10.976 20.832c0.288 1.024 0.672 1.984 1.024 2.912 20.288 43.744 30.624 90.112 30.624 137.728 0 180.928-147.2 328.192-328.128 328.192-180.96 0-328.224-147.264-328.224-328.192 0-47.616 10.272-93.888 30.624-137.728 0.48-1.056 0.864-2.08 1.216-3.104z m296.448-34.976c-96.928 0-175.744 78.816-175.744 175.744s78.816 175.744 175.744 175.744 175.744-78.816 175.744-175.744-78.88-175.744-175.744-175.744z m0 303.2a127.552 127.552 0 0 1-127.488-127.456c0-70.24 57.216-127.456 127.488-127.456s127.488 57.216 127.488 127.456a127.584 127.584 0 0 1-127.488 127.456z"  horiz-adv-x="1024" />

    
    <glyph glyph-name="link" unicode="&#59055;" d="M912.9 492.1l-163.3-163.3-35.4 35.4 163.3 163.3c9.4 9.4 14.5 21.9 14.5 35.4 0 13.4-5.2 26-14.5 35.4l-151.3 151.2c-9.4 9.4-21.9 14.5-35.4 14.5-13.4 0-26-5.2-35.4-14.5l-246-246.1c-9.4-9.4-14.5-21.9-14.5-35.4 0-13.4 5.2-26 14.5-35.4l51.7-51.7-35.4-35.4-51.7 51.7c-38.9 38.9-38.9 102.5 0 141.4l246.1 246.1c38.9 38.9 102.5 38.9 141.4 0l151.3-151.3c39-38.7 39-102.4 0.1-141.3zM649.9 370.6l-91.5 91.5-35.4-35.4 91.5-91.5c9.4-9.4 14.5-21.9 14.5-35.4 0-13.4-5.2-26-14.5-35.4l-246-245.9c-9.4-9.4-21.9-14.5-35.4-14.5-13.4 0-26 5.2-35.4 14.5l-151.2 151.3c-9.4 9.4-14.5 21.9-14.5 35.4 0 13.4 5.2 26 14.5 35.4l157.5 157.4-35.4 35.4-157.5-157.5c-38.9-38.9-38.9-102.5 0-141.4l151.3-151.3c38.9-38.9 102.5-38.9 141.4 0l246.1 246.1c38.9 38.8 38.9 102.4 0 141.3z"  horiz-adv-x="1024" />

    
    <glyph glyph-name="message" unicode="&#58914;" d="M513.1 317.20000000000005c-1 0-1.9 0.1-2.9 0.2-6.8 0.9-17 2.2-414.7 279.8-10.1 7.1-12.6 21-5.5 31.2 7.1 10.1 21 12.6 31.2 5.5 132-92.1 341.2-236.9 390.8-268l394 268.2c10.2 6.9 24.2 4.3 31.1-5.9 7-10.2 4.3-24.1-5.9-31.1l-405.4-276c-3.8-2.5-8.2-3.9-12.7-3.9zM833 675.4c45.8 0 83.1-37.3 83.1-83.1v-415.9c0-45.8-37.3-83.1-83.1-83.1H193.2c-45.8 0-83.1 37.3-83.1 83.1v416c0 45.8 37.3 83.1 83.1 83.1H833m0 44.7H193.2c-70.3 0-127.9-57.5-127.9-127.9v-415.9c0-70.3 57.5-127.9 127.9-127.9H833c70.3 0 127.9 57.5 127.9 127.9v416c-0.1 70.3-57.6 127.8-127.9 127.8z"  horiz-adv-x="1024" />

    
    <glyph glyph-name="exit" unicode="&#58882;" d="M512-134.46299999999997c-272.203 0-493.647 221.443-493.647 493.647 0 166.53 83.303 320.748 222.803 412.517 13.476 8.777 31.495 5.087 40.351-8.35 8.854-13.437 5.087-31.535-8.35-40.351-123.072-80.934-196.589-216.978-196.589-363.817 0.038-240.084 195.346-435.392 435.431-435.392 240.124 0 435.431 195.308 435.431 435.392 0 146.878-73.517 282.882-196.589 363.817-13.437 8.854-17.166 26.913-8.35 40.351 8.894 13.437 26.913 17.088 40.351 8.35 139.538-91.77 222.842-245.988 222.842-412.517-0.038-272.203-221.482-493.647-493.685-493.647zM512 479.342c-16.078 0-29.127 13.05-29.127 29.127v364.866c0 16.078 13.05 29.127 29.127 29.127s29.127-13.05 29.127-29.127v-364.866c0-16.078-13.05-29.127-29.127-29.127z"  horiz-adv-x="1024" />

    
    <glyph glyph-name="scan" unicode="&#59235;" d="M906.411885-10.370951999999988H617.421005v-52.543704h288.989856c29.016871 0 52.54268 23.523763 52.54268 52.543704V278.61890400000004h-52.54268v-288.989856zM118.263497 278.61890400000004H65.719794v-288.989856c0-29.01994 23.523763-52.543703 52.543703-52.543704h288.987811v52.543704H118.263497V278.61890400000004z m0 499.157508h288.987811v52.546773H118.263497c-29.01994 0-52.543703-23.52581-52.543703-52.54575V488.792695h52.543703V777.7764119999999z m788.148388 52.546773H617.421005v-52.54575h288.989856V488.792695h52.54268V777.7764119999999c0.001023 29.01994-23.524786 52.546773-52.541656 52.546773z m26.27134-420.346557H91.989087c-14.509459 0-26.269293-11.761881-26.269293-26.27441 0-14.509459 11.758812-26.269293 26.269293-26.269294h840.694138c14.509459 0 26.27134 11.758812 26.27134 26.269294 0 14.512529-11.761881 26.27441-26.27134 26.27441z"  horiz-adv-x="1024" />

    
    <glyph glyph-name="coins" unicode="&#59048;" d="M563.2 384c315.904 0 563.2 112.384 563.2 256S879.104 896 563.2 896 0 783.616 0 640s247.296-256 563.2-256z m0 460.8c307.2 0 512-105.984 512-204.8s-204.8-204.8-512-204.8-512 105.984-512 204.8 204.8 204.8 512 204.8zM1051.904 482.304a25.6 25.6 0 0 1-2.304-36.096A96.512 96.512 0 0 0 1075.2 384c0-98.816-204.8-204.8-512-204.8S51.2 285.18399999999997 51.2 384a95.744 95.744 0 0 0 25.6 60.928 25.6 25.6 0 1 1-39.424 32.768A145.152 145.152 0 0 1 0 384c0-143.616 247.296-256 563.2-256s563.2 112.384 563.2 256a146.176 146.176 0 0 1-38.4 95.488 25.6 25.6 0 0 1-36.096 2.816zM1051.904 226.30399999999997a25.6 25.6 0 0 1-2.304-36.096A96.512 96.512 0 0 0 1075.2 128c0-98.816-204.8-204.8-512-204.8S51.2 29.18399999999997 51.2 128a95.744 95.744 0 0 0 25.6 60.928 25.6 25.6 0 1 1-39.424 32.768A145.152 145.152 0 0 1 0 128c0-143.616 247.296-256 563.2-256s563.2 112.384 563.2 256a146.176 146.176 0 0 1-38.4 95.488 25.6 25.6 0 0 1-36.096 2.816z"  horiz-adv-x="1126" />

    
    <glyph glyph-name="set" unicode="&#58947;" d="M609.534332 849.453136v-9.513154c0-90.985914 72.629546-165.008336 161.902613-165.008336 28.609458 0 56.71896 7.709315 81.291775 22.291019l8.318261 4.934561 98.049287-171.774735-8.114279-4.755577c-77.75409-45.535953-104.697696-146.180009-60.064662-224.355062 14.205738-24.952783 34.726914-45.665942 59.345726-59.912676l8.184272-4.738579-98.021289-171.728739-8.282264 4.794574c-24.771799 14.345725-52.837304 21.930051-81.160787 21.930051a161.937609 161.937609 0 0 1-79.974893-21.171118c-25.047774-14.265732-45.919919-35.172874-60.357636-60.460627-14.206737-24.952783-21.678074-53.248268-21.595081-81.822729l0.027997-9.536153H412.923805l-0.045996 9.46216c-0.214981 43.914097-17.167474 85.157432-47.736758 116.131679-30.535286 30.937251-71.070684 47.978736-114.136857 47.978737-28.487468 0-56.467982-7.624322-80.91281-22.041042l-8.309261-4.900564-98.028289 171.71974 8.080282 4.760577c37.530665 22.117035 64.407276 57.593882 75.680275 99.892122 11.275998 42.30924 5.603502 86.432319-15.974581 124.247959-14.29173 25.054773-34.954894 45.842926-59.756689 60.119657l-8.21227 4.72958 98.074284 171.754736 8.287264-4.826571c24.86879-14.481713 53.061285-22.134033 81.527754-22.134033 27.997512 0 55.652054 7.320349 79.972893 21.171119 25.047774 14.262733 45.916919 35.172874 60.353637 60.468626 14.356724 25.111768 21.824061 53.697228 21.597081 82.680653l-0.074994 9.581148 196.225562 0.030997m-0.001 46.541864h-0.005999l-196.225562-0.030997a46.551863 46.551863 0 0 1-33.035064-13.762777 46.547863 46.547863 0 0 1-13.497801-33.145054l0.074994-9.581149c0.161986-20.759155-5.184539-41.237335-15.461626-59.213738-10.321083-18.086393-25.177763-32.988068-42.979181-43.127167a115.270756 115.270756 0 0 0-56.94294-15.072661c-20.249201 0-40.343415 5.468514-58.107836 15.813595l-8.286263 4.823571a46.525865 46.525865 0 0 1-35.489846 4.72958 46.526865 46.526865 0 0 1-28.348481-21.870056l-98.073285-171.754737c-12.71287-22.262022-5.027553-50.614502 17.188473-63.409365l8.21227-4.72958c17.647432-10.158097 32.361124-24.971781 42.557218-42.848192 15.475625-27.11959 19.533264-58.795775 11.428984-89.202073-8.10628-30.415297-27.403565-55.907032-54.337171-71.780621l-8.076282-4.758577c-21.932051-12.921852-29.414386-41.064351-16.793508-63.173386l98.027289-171.71774a46.549863 46.549863 0 0 1 40.417408-23.466914c8.245267 0 16.417541 2.189805 23.643899 6.451426l8.309262 4.900565c17.292463 10.198094 37.095703 15.589615 57.27091 15.589614 30.518288 0 59.289731-12.120923 81.012801-34.129967 21.976047-22.268021 34.164964-51.981381 34.31995-83.665564l0.044996-9.46216c0.124989-25.614724 20.92614-46.313884 46.540864-46.313884h196.160568a46.540864 46.540864 0 0 1 46.541864 46.677852l-0.027998 9.536153c-0.059995 20.461182 5.299529 40.746379 15.498623 58.656787 10.278087 18.0044 25.137766 32.906076 42.946183 43.047175a115.285755 115.285755 0 0 0 56.94094 15.07266c20.14121 0 40.141433-5.417519 57.83686-15.663608l8.287264-4.797574a46.543864 46.543864 0 0 1 35.44785-4.655586 46.537864 46.537864 0 0 1 28.290485 21.862057L998.866734 213.54964700000005c12.687872 22.225025 5.047551 50.52651-17.099481 63.349371l-8.184273 4.738579c-17.498445 10.1241-32.094148 24.875789-42.220248 42.661208-32.077149 56.183007-12.71187 128.460584 43.139167 161.167678l8.124278 4.760577c21.998045 12.890854 29.530376 41.084349 16.889499 63.227381l-98.048287 171.774735a46.536864 46.536864 0 0 1-40.419408 23.468914 46.555863 46.555863 0 0 1-23.74389-6.510421l-8.319261-4.934562a112.805975 112.805975 0 0 0-57.548885-15.779597c-63.610347 0-115.360748 53.143277-115.360749 118.466472V849.453136A46.542864 46.542864 0 0 1 609.533332 895.995zM511.351058 578.1392470000001c105.881591 0 192.020936-87.080261 192.020935-194.116749s-86.139345-194.11375-192.020935-194.11375-192.020936 87.077262-192.020936 194.11375 86.141345 194.116749 192.020936 194.116749m0 46.541864c-131.54331 0-238.5628-107.959406-238.5628-240.657613s107.01849-240.654614 238.5628-240.654614 238.5618 107.956406 238.561799 240.654614-107.01749 240.657613-238.561799 240.657613z"  horiz-adv-x="1024" />

    
    <glyph glyph-name="loop-this" unicode="&#58887;" d="M448.667826 14.469564999999989l88.153044-88.153043a22.26087 22.26087 0 1 0-31.499131-31.499131l-125.907478 125.929739a22.26087 22.26087 0 0 0 20.48 37.487305l0.734609 0.734608H690.086957c184.409043 0 333.913043 149.504 333.913043 333.913044 0 107.386435-50.688 202.952348-129.469217 264.013913l-0.022261 0.111304a22.238609 22.238609 0 1 0 27.625739 34.771479l0.044522 0.044521c89.043478-69.231304 146.342957-177.39687 146.342956-298.941217 0-209.007304-169.427478-378.434783-378.434782-378.434783H448.667826z m261.787826 711.724522A339.099826 339.099826 0 0 1 690.086957 726.79513H378.434783c-184.409043 0-333.913043-149.481739-333.913044-333.913043 0-125.261913 68.964174-234.406957 171.008-291.528348l0.022261-0.111304a22.26087 22.26087 0 1 0-22.706087-38.110609l-0.066783-0.089043C77.690435 127.95547799999997 0 251.36973899999998 0 392.904348c0 209.029565 169.427478 378.434783 378.434783 378.434782h282.312347L574.107826 858.000696A22.26087 22.26087 0 0 0 605.562435 889.477565L731.492174 763.547826a22.26087 22.26087 0 1 0-21.036522-37.353739zM597.726609 527.137391c1.647304-3.428174 2.381913-7.212522 2.159304-10.952348V228.17391299999997a22.26087 22.26087 0 0 0-44.521739 0V463.693913l-72.125217-72.125217a22.26087 22.26087 0 1 0-31.47687 31.476869l108.81113 108.855652a22.26087 22.26087 0 0 0 37.153392-4.741565z"  horiz-adv-x="1068" />

    
    <glyph glyph-name="loop-list" unicode="&#58889;" d="M448.667826 5.5652169999999614l88.153044-88.153043a22.26087 22.26087 0 0 0-31.499131-31.47687l-125.907478 125.929739a22.26087 22.26087 0 0 0 20.48 37.487305l0.734609 0.734609H690.086957c184.409043 0 333.913043 149.504 333.913043 333.913043 0 107.386435-50.688 202.930087-129.469217 264.013913l-0.022261 0.111304a22.238609 22.238609 0 1 0 27.625739 34.771479l0.044522 0.044521C1011.222261 613.7099129999999 1068.521739 505.522087 1068.521739 384c0-209.007304-169.427478-378.434783-378.434782-378.434783H448.667826z m261.787826 711.746783A339.099826 339.099826 0 0 1 690.086957 717.913043H378.434783C194.025739 717.913043 44.521739 568.409043 44.521739 384c0-125.261913 68.964174-234.406957 171.008-291.550609l0.022261-0.089043a22.26087 22.26087 0 1 0-22.706087-38.110609l-0.066783-0.089043C77.690435 119.09565199999997 0 242.46539099999995 0 384 0 593.007304 169.427478 762.434783 378.434783 762.434783h282.312347L574.107826 849.118609A22.26087 22.26087 0 0 0 605.562435 880.595478L731.492174 754.643478a22.26087 22.26087 0 1 0-21.036522-37.353739z"  horiz-adv-x="1068" />

    
    <glyph glyph-name="random" unicode="&#58891;" d="M575.786667 262.16533300000003l30.336-65.813333c52.266667-113.408 123.072-186.069333 247.936-186.069333h84.181333a21.333333 21.333333 0 1 0 0-42.666667h-84.181333c-141.525333 0-227.456 82.346667-286.698667 210.88L552.32 211.20000000000005l23.466667 50.965333z m-88.32 191.658667l-23.509334-50.965333-28.288 61.376A320 320 0 0 1 145.066667 650.282667H85.333333a21.333333 21.333333 0 0 0 0 42.666666h59.733334a362.666667 362.666667 0 0 0 329.365333-210.858666l13.013333-28.266667z m400.426666 196.48h-33.834666c-124.864 0-195.669333-72.661333-247.936-186.069333l-131.690667-285.738667a362.666667 362.666667 0 0 0-329.386667-210.88H85.333333a21.333333 21.333333 0 0 0 0 42.666667h59.733334a320 320 0 0 1 290.602666 186.069333l131.690667 285.738667c59.242667 128.533333 145.173333 210.858667 286.72 210.858666h32.490667L802.773333 776.704a21.333333 21.333333 0 1 0 30.186667 30.186667l120.661333-120.682667c4.48-4.48 6.570667-10.474667 6.229334-16.341333a21.248 21.248 0 0 0-6.229334-14.165334l-120.682666-120.682666a21.333333 21.333333 0 1 0-30.165334 30.186666l85.077334 85.077334z"  horiz-adv-x="1024" />

    
    <glyph glyph-name="bar-graph" unicode="&#58892;" d="M301.406-84.92200000000003H151.043V329.302c75.181 27.44 150.363-7.52 150.363-19.257v-394.967zM316.747-100.26800000000003h-181.05V742.544c0 27.642 22.493 50.135 50.141 50.135h80.773c27.642 0 50.135-22.493 50.135-50.135v-842.812z m-150.363 30.686H286.06V742.544c0 10.722-8.726 19.449-19.449 19.449h-80.773c-10.728 0-19.455-8.726-19.455-19.449v-812.126zM587.3-84.92200000000003H436.937v302.73c0 19.216 54.212 44.495 150.363 12.275v-315.005zM602.645-100.26800000000003H421.596V820.249c0 27.648 22.493 50.141 50.135 50.141h80.773c27.648 0 50.141-22.493 50.141-50.141v-920.517z m-150.363 30.686h119.677V820.249c0 10.728-8.726 19.455-19.455 19.455H471.73c-10.722 0-19.449-8.726-19.449-19.455v-889.831zM873.194-84.92200000000003H722.831V214.74c0 92.059 93.593 122.695 150.363 105.336v-404.998zM888.537-100.26800000000003H707.488V514.429c0 27.642 22.493 50.135 50.135 50.135h80.779c27.642 0 50.135-22.493 50.135-50.135v-614.697z m-150.363 30.686h119.677V514.429c0 10.722-8.726 19.449-19.449 19.449h-80.779c-10.722 0-19.449-8.726-19.449-19.449v-584.011zM15-71.17499999999995h994.236v-30.155H15z"  horiz-adv-x="1024" />

    
    <glyph glyph-name="radio" unicode="&#58893;" d="M940.146-9.692000000000007H89.355c-40.241 0-72.981 32.74-72.981 72.984V624.02c0 40.244 32.74 72.984 72.981 72.984h850.792c40.244 0 72.984-32.74 72.984-72.984v-560.727c-0.001-40.245-32.741-72.985-72.985-72.985zM89.355 670.634c-25.702 0-46.612-20.91-46.612-46.615v-560.727c0-25.705 20.91-46.615 46.612-46.615h850.792c25.705 0 46.615 20.91 46.615 46.615V624.02c0 25.705-20.91 46.615-46.615 46.615H89.355zM572.764 499.784h311.157v-15.162H572.764zM216.631 698.196L663.26 847.26l4.8-14.382-446.627-149.064zM614.955 357.66499999999996h268.966v-15.162H614.955zM572.764 215.54499999999996h311.157v-15.162H572.764zM305.51 361.41099999999994m-205.49 0a205.49 205.49 0 1 1 410.98 0 205.49 205.49 0 1 1-410.98 0ZM305.51 142.92100000000005c-58.361 0-113.228 22.727-154.496 63.994-41.267 41.268-63.994 96.135-63.994 154.496 0 58.36 22.727 113.228 63.994 154.495 41.268 41.267 96.135 63.994 154.496 63.994s113.228-22.727 154.496-63.994C501.273 474.639 524 419.771 524 361.41099999999994c0-58.361-22.727-113.229-63.994-154.496-41.268-41.268-96.135-63.994-154.496-63.994z m0 410.979c-106.139 0-192.49-86.35-192.49-192.489 0-106.14 86.351-192.49 192.49-192.49S498 255.27099999999996 498 361.41099999999994C498 467.55 411.649 553.9 305.51 553.9z"  horiz-adv-x="1024" />

    


  </font>
</defs>
</svg>
